<svg width="76" height="33" viewBox="0 0 76 33" fill="none" xmlns="http://www.w3.org/2000/svg">
<mask id="mask0_12_17" style="mask-type:alpha" maskUnits="userSpaceOnUse" x="0" y="0" width="76" height="33">
<rect width="76" height="33" fill="#D9D9D9"/>
</mask>
<g mask="url(#mask0_12_17)">
<path d="M5.01278 25.2633C5.87627 26.4291 18.6345 31.3722 28.0841 25.4156C35.0603 19.6286 25.962 8.13862 24.0937 6.97418C22.2254 5.80974 18.6516 3.73713 16.3437 8.28038C12.1997 16.4383 17.4724 18.6918 5.01278 25.2633Z" fill="#51889F"/>
<path d="M23.6043 12.0189C18.7064 19.8766 11.9409 19.2129 6.83828 16.9757C0.00855757 12.5767 3.10181 5.56087 3.97368 3.43838C4.84555 1.3159 6.99825 -0.923287 9.12215 1.09258C13.6331 5.37404 11.8802 11.9165 23.6043 12.0189Z" fill="#DAE7F2"/>
<path d="M19.1274 2.01794C19.0864 2.12233 18.9792 2.17558 18.9167 2.26051C18.8784 2.31249 18.8543 2.36207 18.8169 2.41284C18.7137 2.55296 18.6005 2.68664 18.4958 2.82876C18.3112 3.07948 18.2136 3.38497 17.9948 3.61235C17.7012 3.91756 17.579 4.40146 17.4212 4.79368C17.3488 4.9736 17.31 5.17725 17.2206 5.34842C17.1237 5.53391 17.0416 5.7237 16.9327 5.90059C16.8875 5.97392 16.8786 6.06426 16.8395 6.14158C16.784 6.25155 16.7258 6.36319 16.6778 6.47703C16.6064 6.64645 16.5551 6.81644 16.5042 6.99255C16.3829 7.41203 16.1864 7.81386 16.0658 8.23084" stroke="white" stroke-opacity="0.7" stroke-linecap="round"/>
<path d="M15.996 8.40271C15.8948 8.75257 15.7786 9.08499 15.6778 9.4333C15.6134 9.65621 15.6107 9.87363 15.5466 10.0954C15.4877 10.299 15.445 10.516 15.3843 10.7258C15.2884 11.0576 15.1627 11.3977 15.1024 11.7353C15.0237 12.1758 14.9316 12.6136 14.8711 13.0555C14.8282 13.3696 14.8229 13.6829 14.7883 13.9974C14.7512 14.335 14.6938 14.7062 14.6168 15.0418C14.5755 15.2219 14.556 15.3947 14.5044 15.5729C14.4735 15.6801 14.4425 15.7872 14.4115 15.8944C14.385 15.986 14.3269 16.0625 14.2975 16.1498C14.2503 16.2893 14.2016 16.4109 14.1209 16.5367C14.0681 16.6191 14.0093 16.6836 13.9399 16.7461C13.8972 16.7844 13.852 16.8578 13.8044 16.8827C13.6893 16.943 13.5904 17.1645 13.4517 17.1653C13.3157 17.1662 13.1864 17.1311 13.0511 17.1235C12.8607 17.113 12.6525 17.0476 12.458 17.0918C12.3173 17.1238 12.2119 17.2181 12.0764 17.2657C11.6968 17.3989 11.6065 17.9634 11.2346 18.0939C11.0204 18.1691 10.7992 18.2529 10.603 18.3882C10.5656 18.4141 10.5175 18.4521 10.4763 18.4639C10.4486 18.4718 10.3621 18.4759 10.4402 18.4652C10.5449 18.4508 10.6454 18.4223 10.7476 18.4436C10.866 18.4684 11.0005 18.3897 11.1212 18.4206C11.2067 18.4425 11.3279 18.3604 11.4071 18.4001C11.5922 18.493 11.7206 18.6924 11.9211 18.7437C12.035 18.7728 12.1544 18.8507 12.2781 18.8823C12.428 18.9206 12.5751 18.982 12.7287 19.0212C12.8822 19.0605 13.0711 19.0744 13.2041 19.1665C13.2585 19.2041 13.3882 19.2335 13.4224 19.2987C13.457 19.3646 13.4925 19.4492 13.5515 19.4924" stroke="white" stroke-opacity="0.7" stroke-linecap="round"/>
<path d="M13.5757 19.6172C13.4667 19.9941 13.3754 20.3791 13.2655 20.7591C13.1517 21.1526 13.0517 21.5553 12.9044 21.9382C12.7454 22.3516 12.5382 22.8678 12.2726 23.2205C12.1823 23.3404 12.1303 23.4903 12.0391 23.6114C11.9866 23.6811 11.922 23.8079 11.8971 23.8939C11.8619 24.0158 11.7889 24.1292 11.7526 24.2549C11.7176 24.3758 11.6811 24.5483 11.6836 24.6707C11.687 24.832 11.7062 24.9707 11.6595 25.1322C11.638 25.2063 11.6263 25.5828 11.5642 25.6005" stroke="white" stroke-opacity="0.7" stroke-linecap="round"/>
<path d="M11.5259 25.733C11.3939 26.1891 11.2795 26.6543 11.1486 27.1068C11.0768 27.3551 11.0795 27.6204 11.0528 27.8702C11.0308 28.0749 11.0667 28.2925 11.0084 28.4938C10.9505 28.6943 10.9754 28.9126 10.9489 29.1163C10.9379 29.2003 10.9723 29.2988 10.9527 29.3807C10.9338 29.4599 10.9356 29.5621 10.933 29.6418C10.9262 29.8475 10.9272 30.0651 10.8984 30.2666C10.8798 30.3965 10.9597 30.542 10.9776 30.6676C10.9921 30.7691 11.0455 30.8638 11.0853 30.9507C11.1217 31.0302 11.1295 31.1413 11.1748 31.216C11.2039 31.2641 11.2867 31.3938 11.3615 31.3533C11.4365 31.3127 11.5066 31.2076 11.5491 31.1325C11.5967 31.0485 11.743 31.0059 11.7728 30.9183C11.814 30.7974 11.876 30.6821 11.9332 30.5681C11.993 30.4488 12.0771 30.2874 12.1604 30.1874C12.1943 30.1468 12.2298 30.1125 12.2683 30.0727C12.3971 29.9396 12.4632 29.7635 12.5626 29.6065C12.614 29.5254 12.635 29.4434 12.6811 29.3588C12.7339 29.2619 12.8117 29.2444 12.8985 29.2049C13.0318 29.1443 13.1323 28.7861 13.1733 28.6441C13.2209 28.4797 13.2684 28.3154 13.316 28.151C13.384 27.9156 13.5097 27.7187 13.6184 27.5063C13.8242 27.1043 14.0734 26.7119 14.1996 26.2756C14.2514 26.0966 14.3382 25.9352 14.3906 25.754C14.4439 25.5698 14.4926 25.2687 14.6258 25.1145C14.663 25.0713 14.6816 25.0151 14.73 24.9817C14.7728 24.9522 14.8256 24.9124 14.85 24.8636C14.8728 24.8182 14.9217 24.7421 14.9544 24.7071C15.0139 24.6435 15.0441 24.526 15.1071 24.4721C15.1897 24.4015 15.2282 24.2553 15.2998 24.1723C15.3786 24.0809 15.3711 23.9444 15.4296 23.8431C15.4849 23.7472 15.5206 23.6375 15.5696 23.5364C15.7454 23.1731 15.8356 22.7692 16.016 22.4095C16.0809 22.28 16.1143 22.1128 16.191 21.9931C16.2488 21.903 16.315 21.7455 16.3025 21.6422" stroke="white" stroke-opacity="0.7" stroke-linecap="round"/>
<path d="M16.3131 21.4283C16.3775 21.4628 16.3941 21.749 16.3903 21.8165C16.3855 21.902 16.4286 21.9726 16.4543 22.0484C16.51 22.2125 16.5591 22.3771 16.6368 22.5298C16.6729 22.6008 16.7069 22.6929 16.762 22.748C16.9757 22.9615 17.2962 23.0992 17.6021 23.015C17.793 22.9624 17.9502 22.7476 18.0701 22.594C18.1075 22.5462 18.1672 22.5293 18.2081 22.4852C18.2535 22.4362 18.2914 22.3934 18.3412 22.3484C18.4491 22.2511 18.567 22.1603 18.6519 22.0389C18.8475 21.7592 18.9662 21.4705 19.0871 21.153C19.217 20.8119 19.2346 20.4744 19.2647 20.1223C19.2888 19.84 19.245 19.5557 19.2906 19.2721C19.3358 18.9914 19.3784 18.6934 19.458 18.4184C19.5209 18.2007 19.5226 17.9971 19.5592 17.7813C19.5885 17.608 19.5122 17.5252 19.4469 17.3968C19.3765 17.2585 19.2597 17.0863 19.108 17.0475C18.6802 16.9382 18.3387 17.087 17.9437 17.2867C17.8399 17.3392 17.7032 17.3927 17.5869 17.4161C17.4685 17.4398 17.3628 17.5079 17.2491 17.5363" stroke="white" stroke-opacity="0.7" stroke-linecap="round"/>
<path d="M19.1151 1.99108C19.1705 1.85454 19.2514 2.06757 19.2642 2.10034C19.2779 2.13574 19.2381 2.46061 19.2842 2.43218C19.3483 2.39259 19.3916 2.3152 19.4675 2.29985C19.5042 2.29241 19.559 2.48797 19.5645 2.51964C19.5973 2.70907 19.625 2.91134 19.5745 3.10977C19.5457 3.2229 19.5565 3.33208 19.5175 3.44564C19.4947 3.51202 19.4725 3.50734 19.4888 3.59902C19.5114 3.72634 19.5034 3.85419 19.5227 3.97921C19.5418 4.10326 19.4918 4.24377 19.4726 4.36823C19.4398 4.5816 19.3988 4.80479 19.3435 5.01898C19.3127 5.13845 19.2919 5.26063 19.2586 5.38196C19.2142 5.54442 19.223 5.71328 19.1771 5.87227C19.145 5.98297 19.1491 6.09417 19.1208 6.20569C19.084 6.35063 19.0589 6.511 19.0402 6.65803C19.0004 6.96995 18.9039 7.28484 18.8492 7.59597C18.817 7.77898 18.839 7.97359 18.7987 8.15221C18.7792 8.23875 18.8013 8.34006 18.7941 8.43033C18.7855 8.53939 18.7765 8.64705 18.7691 8.75593C18.7533 8.98922 18.6655 9.22322 18.6321 9.45734C18.6187 9.55119 18.5888 9.64177 18.5623 9.73329C18.5453 9.79212 18.4808 9.90402 18.4887 9.95294C18.5017 10.0334 18.4621 10.1434 18.4498 10.2262C18.4297 10.3628 18.4097 10.4947 18.3817 10.6317C18.3626 10.7252 18.3463 10.8162 18.3237 10.9094C18.2827 11.0779 18.2152 11.2737 18.1981 11.4438C18.1739 11.6842 18.0524 11.9234 18.0048 12.1624C17.9709 12.3323 17.9363 12.5086 17.9154 12.6797C17.9026 12.7841 17.8996 12.9088 17.8758 13.0095C17.8601 13.0756 17.8716 13.1683 17.8708 13.2348C17.8688 13.4138 17.893 13.5995 17.8739 13.7797C17.8397 14.1012 17.9105 14.4338 17.8332 14.7534C17.8059 14.866 17.5484 15.6193 17.5697 15.6333C17.6398 15.6793 17.5626 15.8278 17.5353 15.9222C17.4966 16.0559 17.4757 16.1977 17.4358 16.3355C17.4044 16.4443 17.3729 16.553 17.3414 16.6618C17.3272 16.7109 17.3131 16.7599 17.2989 16.809C17.2824 16.8658 17.2965 16.9432 17.2568 16.9893C17.154 17.1083 17.2003 17.358 17.1598 17.498" stroke="white" stroke-opacity="0.7" stroke-linecap="round"/>
<path d="M18.0429 2.01621C18.0022 2.12063 17.8952 2.17393 17.8329 2.2589C17.7948 2.3109 17.7708 2.3605 17.7335 2.41129C17.6308 2.55147 17.518 2.68522 17.4137 2.8274C17.2299 3.07824 17.1332 3.3838 16.9151 3.6113C16.6224 3.91668 16.5017 4.40068 16.345 4.79301C16.2731 4.97299 16.235 5.17667 16.1461 5.34789C16.0498 5.53344 15.9682 5.72329 15.8598 5.90025C15.8148 5.97361 15.8062 6.06396 15.7674 6.14131C15.7122 6.25131 15.6543 6.36299 15.6067 6.47686C15.5358 6.64633 15.485 6.81636 15.4346 6.99251C15.3145 7.41209 15.1192 7.81404 14.9998 8.23112" stroke="black" stroke-linecap="round"/>
<path d="M14.9306 8.40304C14.8304 8.75297 14.7152 9.08547 14.6155 9.43387C14.5517 9.65682 14.5497 9.87426 14.4862 10.096C14.428 10.2997 14.3859 10.5167 14.3259 10.7266C14.2309 11.0585 14.1062 11.3987 14.0469 11.7363C13.9696 12.1769 13.8788 12.6148 13.8196 13.0568C13.7776 13.3709 13.7733 13.6842 13.7396 13.9988C13.7035 14.3364 13.6472 14.7077 13.5712 15.0433C13.5304 15.2235 13.5114 15.3963 13.4604 15.5746C13.4297 15.6817 13.3991 15.7889 13.3684 15.8961C13.3421 15.9878 13.2843 16.0642 13.2551 16.1516C13.2084 16.2912 13.16 16.4127 13.0797 16.5386C13.0271 16.621 12.9686 16.6856 12.8993 16.7481C12.8568 16.7864 12.8118 16.8598 12.7643 16.8848C12.6494 16.9451 12.5511 17.1667 12.4124 17.1676C12.2764 17.1686 12.1471 17.1335 12.0117 17.126C11.8213 17.1155 11.6129 17.0503 11.4186 17.0946C11.278 17.1266 11.1729 17.221 11.0376 17.2686C10.6584 17.402 10.5697 17.9667 10.1983 18.0973C9.98426 18.1726 9.7634 18.2565 9.56758 18.392C9.53023 18.4179 9.48233 18.4559 9.4411 18.4677C9.41343 18.4757 9.327 18.4798 9.40504 18.4691C9.5097 18.4547 9.61005 18.426 9.71232 18.4474C9.83077 18.4721 9.96503 18.3933 10.0858 18.4241C10.1714 18.4459 10.2923 18.3638 10.3716 18.4035C10.557 18.4963 10.686 18.6956 10.8867 18.7468C11.0006 18.7759 11.1203 18.8538 11.244 18.8853C11.394 18.9236 11.5413 18.9848 11.6949 19.024C11.8486 19.0632 12.0375 19.077 12.1708 19.1691C12.2253 19.2067 12.355 19.236 12.3895 19.3012C12.4243 19.367 12.46 19.4516 12.5192 19.4949" stroke="black" stroke-linecap="round"/>
<path d="M12.5437 19.6196C12.4358 19.9966 12.3457 20.3817 12.2369 20.7618C12.1243 21.1553 12.0255 21.5581 11.8793 21.9411C11.7216 22.3547 11.5159 22.871 11.2513 23.2239C11.1614 23.3438 11.1098 23.4937 11.019 23.6149C10.9667 23.6846 10.9025 23.8114 10.8779 23.8975C10.843 24.0194 10.7704 24.1329 10.7345 24.2585C10.6998 24.3795 10.6638 24.5521 10.6667 24.6744C10.6706 24.8358 10.6901 24.9745 10.6439 25.136C10.6227 25.2101 10.6121 25.5866 10.55 25.6044" stroke="black" stroke-linecap="round"/>
<path d="M10.5121 25.7369C10.3816 26.1931 10.2685 26.6584 10.1389 27.111C10.0679 27.3593 10.0714 27.6247 10.0454 27.8745C10.024 28.0793 10.0605 28.2968 10.0029 28.4982C9.94553 28.6987 9.9711 28.9171 9.9452 29.1207C9.9345 29.2048 9.96915 29.3033 9.9498 29.3852C9.93109 29.4644 9.93323 29.5666 9.93083 29.6463C9.92463 29.8521 9.92629 30.0696 9.89808 30.2712C9.8799 30.4011 9.96018 30.5466 9.97847 30.6722C9.99325 30.7737 10.047 30.8684 10.087 30.9553C10.1236 31.0347 10.1318 31.1459 10.1773 31.2205C10.2065 31.2686 10.2897 31.3983 10.3643 31.3578C10.4393 31.3171 10.5091 31.2119 10.5513 31.1369C10.5987 31.0528 10.7448 31.0101 10.7744 30.9225C10.8152 30.8016 10.8769 30.6862 10.9337 30.5722C10.9932 30.4529 11.0768 30.2914 11.1598 30.1914C11.1935 30.1507 11.229 30.1164 11.2673 30.0766C11.3958 29.9435 11.4613 29.7673 11.5603 29.6102C11.6114 29.529 11.6322 29.4471 11.678 29.3624C11.7305 29.2655 11.8082 29.2479 11.8949 29.2084C12.0281 29.1477 12.1274 28.7895 12.1681 28.6475C12.2151 28.483 12.2622 28.3186 12.3092 28.1542C12.3766 27.9188 12.5017 27.7218 12.6097 27.5094C12.8143 27.1072 13.0624 26.7147 13.1873 26.2782C13.2385 26.0992 13.3249 25.9377 13.3767 25.7565C13.4294 25.5723 13.4773 25.2711 13.6099 25.1168C13.6471 25.0736 13.6655 25.0174 13.7137 24.984C13.7565 24.9545 13.8091 24.9146 13.8334 24.8658C13.8561 24.8203 13.9047 24.7443 13.9373 24.7092C13.9966 24.6456 14.0265 24.5281 14.0893 24.4742C14.1717 24.4035 14.2097 24.2572 14.2811 24.1742C14.3597 24.0828 14.3518 23.9462 14.4099 23.845C14.465 23.749 14.5004 23.6393 14.549 23.5381C14.7237 23.1747 14.8127 22.7708 14.992 22.4109C15.0566 22.2813 15.0895 22.1142 15.1658 21.9945C15.2233 21.9043 15.2891 21.7467 15.2763 21.6435" stroke="black" stroke-linecap="round"/>
<path d="M15.2862 21.4295C15.3507 21.4639 15.3682 21.7502 15.3646 21.8177C15.36 21.9032 15.4033 21.9738 15.4292 22.0495C15.4854 22.2136 15.535 22.3783 15.6131 22.5309C15.6495 22.6019 15.6838 22.694 15.739 22.7491C15.9533 22.9625 16.2742 23.1001 16.5798 23.0157C16.7705 22.963 16.9271 22.7481 17.0466 22.5945C17.0838 22.5466 17.1434 22.5297 17.1842 22.4856C17.2295 22.4366 17.2672 22.3937 17.3169 22.3487C17.4245 22.2513 17.5421 22.1604 17.6266 22.039C17.8214 21.7592 17.9393 21.4704 18.0592 21.1529C18.188 20.8116 18.2047 20.4741 18.2337 20.1219C18.257 19.8396 18.2123 19.5553 18.2571 19.2716C18.3015 18.9909 18.3432 18.6928 18.4219 18.4179C18.4842 18.2 18.4853 17.9965 18.5212 17.7806C18.5501 17.6073 18.4735 17.5245 18.4078 17.3962C18.337 17.2578 18.2198 17.0857 18.0679 17.047C17.6399 16.9378 17.2988 17.0869 16.9045 17.2868C16.8008 17.3393 16.6643 17.3929 16.5481 17.4163C16.4297 17.4402 16.3242 17.5083 16.2107 17.5367" stroke="black" stroke-linecap="round"/>
<path d="M18.0305 1.98936C18.0855 1.85278 18.167 2.06578 18.1799 2.09855C18.1937 2.13395 18.1549 2.45887 18.2009 2.4304C18.2648 2.39078 18.3079 2.31337 18.3837 2.29798C18.4205 2.29052 18.4758 2.48606 18.4814 2.51774C18.5148 2.70716 18.5431 2.90944 18.4932 3.10791C18.4647 3.22106 18.4758 3.33025 18.4372 3.44384C18.4146 3.51023 18.3923 3.50556 18.4089 3.59724C18.4319 3.72455 18.4243 3.85242 18.4439 3.97744C18.4634 4.1015 18.4138 4.24204 18.395 4.36652C18.3628 4.57992 18.3225 4.80315 18.2679 5.01738C18.2374 5.13688 18.2169 5.25908 18.184 5.38044C18.14 5.54293 18.1494 5.7118 18.1039 5.87083C18.0722 5.98155 18.0766 6.09275 18.0486 6.2043C18.0123 6.34927 17.9876 6.50966 17.9693 6.65672C17.9306 6.96868 17.835 7.28364 17.7812 7.59483C17.7496 7.77786 17.7721 7.97247 17.7324 8.15113C17.7131 8.23769 17.7355 8.33899 17.7286 8.42928C17.7203 8.53835 17.7116 8.64602 17.7046 8.75491C17.6894 8.98823 17.6024 9.22229 17.5696 9.45644C17.5564 9.55031 17.5268 9.64091 17.5006 9.73245C17.4838 9.7913 17.4197 9.90324 17.4277 9.95216C17.441 10.0326 17.4016 10.1427 17.3896 10.2255C17.3699 10.3621 17.3503 10.494 17.3227 10.631C17.3038 10.7245 17.2879 10.8155 17.2655 10.9087C17.225 11.0774 17.1581 11.2731 17.1415 11.4432C17.1181 11.6838 16.9972 11.923 16.9503 12.162C16.917 12.3319 16.8829 12.5083 16.8625 12.6794C16.8501 12.7838 16.8473 12.9086 16.8239 13.0092C16.8084 13.0753 16.8201 13.1681 16.8196 13.2346C16.8181 13.4136 16.8428 13.5993 16.8242 13.7795C16.791 14.1011 16.8628 14.4336 16.7864 14.7533C16.7595 14.8659 16.5042 15.6194 16.5256 15.6334C16.5958 15.6794 16.519 15.828 16.492 15.9224C16.4537 16.0561 16.4332 16.1979 16.3938 16.3357C16.3626 16.4445 16.3315 16.5533 16.3004 16.6621C16.2863 16.7112 16.2723 16.7603 16.2582 16.8094C16.242 16.8661 16.2563 16.9436 16.2167 16.9897C16.1143 17.1087 16.1613 17.3584 16.1212 17.4985" stroke="black" stroke-linecap="round"/>
<path d="M25.032 21.696C24.368 21.696 24.028 21.432 24.012 20.904C24.012 20.68 24.084 20.48 24.228 20.304C24.372 20.12 24.548 20.028 24.756 20.028C24.908 20.028 25.036 20.092 25.14 20.22C25.228 20.316 25.272 20.436 25.272 20.58C25.272 20.972 25.088 21.168 24.72 21.168C24.528 21.168 24.392 21.092 24.312 20.94C24.352 21.228 24.584 21.372 25.008 21.372C25.104 21.372 25.192 21.36 25.272 21.336C26.208 21.096 27.052 20.36 27.804 19.128L28.044 18.732C27.604 18.1 27.384 17.544 27.384 17.064C27.384 16.752 27.476 16.512 27.66 16.344C27.836 16.168 28.08 16.08 28.392 16.08C28.672 16.08 28.992 16.16 29.352 16.32L29.964 15.132C30.292 14.484 30.608 13.984 30.912 13.632C31.28 13.192 31.7 12.888 32.172 12.72C31.972 12.688 31.76 12.668 31.536 12.66C31.32 12.644 31.088 12.636 30.84 12.636C29.376 12.636 28.336 12.816 27.72 13.176C27.52 13.296 27.34 13.424 27.18 13.56C27.02 13.688 26.884 13.82 26.772 13.956C26.548 14.236 26.436 14.496 26.436 14.736C26.436 15.016 26.6 15.188 26.928 15.252C27.04 15.276 27.152 15.288 27.264 15.288C28.04 15.288 28.76 14.968 29.424 14.328C29.456 14.296 29.492 14.288 29.532 14.304C29.564 14.312 29.58 14.336 29.58 14.376C29.58 14.4 29.576 14.416 29.568 14.424C29.44 14.584 29.284 14.732 29.1 14.868C28.916 15.004 28.704 15.128 28.464 15.24C27.984 15.464 27.52 15.576 27.072 15.576C26.72 15.576 26.416 15.496 26.16 15.336C25.856 15.152 25.704 14.896 25.704 14.568C25.704 14.272 25.828 13.984 26.076 13.704C26.804 12.856 28.264 12.432 30.456 12.432C30.808 12.432 31.148 12.444 31.476 12.468C31.812 12.492 32.14 12.532 32.46 12.588C32.74 12.516 32.984 12.48 33.192 12.48C33.6 12.48 33.804 12.58 33.804 12.78C33.804 12.876 33.748 12.956 33.636 13.02C33.524 13.084 33.392 13.116 33.24 13.116C33.152 13.116 33.044 13.092 32.916 13.044C32.796 12.996 32.652 12.92 32.484 12.816C32.1 12.96 31.784 13.208 31.536 13.56C31.448 13.688 31.352 13.868 31.248 14.1C31.144 14.332 31.032 14.612 30.912 14.94C30.76 15.348 30.62 15.716 30.492 16.044C30.372 16.364 30.26 16.64 30.156 16.872C30.46 17.12 30.736 17.42 30.984 17.772C31.184 18.044 31.368 18.32 31.536 18.6C31.704 18.88 31.864 19.168 32.016 19.464C32.032 18.656 32.264 17.704 32.712 16.608C32.912 16.128 33.128 15.672 33.36 15.24C33.6 14.808 33.856 14.4 34.128 14.016C34.912 12.912 35.676 12.312 36.42 12.216L36.48 12.216C36.536 12.216 36.564 12.236 36.564 12.276C36.564 12.332 36.54 12.36 36.492 12.36C35.948 12.424 35.38 12.936 34.788 13.896C34.524 14.32 34.276 14.792 34.044 15.312C33.812 15.832 33.6 16.396 33.408 17.004C33.024 18.188 32.832 19.156 32.832 19.908C32.832 20.588 32.996 20.928 33.324 20.928C33.54 20.928 33.804 20.728 34.116 20.328C34.42 19.944 34.78 19.32 35.196 18.456C35.228 18.376 35.268 18.328 35.316 18.312L35.328 18.312C35.36 18.312 35.376 18.34 35.376 18.396C35.376 18.444 35.356 18.508 35.316 18.588C34.876 19.484 34.608 20.008 34.512 20.16C34.12 20.792 33.724 21.132 33.324 21.18C33.292 21.188 33.264 21.192 33.24 21.192C33.216 21.192 33.188 21.192 33.156 21.192C32.652 21.192 32.304 20.892 32.112 20.292C32.08 20.188 32.024 20.06 31.944 19.908C31.864 19.748 31.756 19.556 31.62 19.332C31.468 19.076 31.312 18.84 31.152 18.624C31 18.4 30.844 18.2 30.684 18.024C30.564 17.888 30.444 17.764 30.324 17.652C30.204 17.532 30.08 17.42 29.952 17.316C29.776 17.684 29.592 18.032 29.4 18.36C29.216 18.68 29.02 18.98 28.812 19.26C29.228 19.724 29.7 20.1 30.228 20.388C30.268 20.404 30.276 20.432 30.252 20.472C30.228 20.496 30.196 20.504 30.156 20.496C29.612 20.256 29.108 19.912 28.644 19.464C28.332 19.856 27.98 20.232 27.588 20.592C27.196 20.952 26.788 21.224 26.364 21.408C25.94 21.6 25.496 21.696 25.032 21.696ZM28.212 18.432C28.348 18.2 28.488 17.948 28.632 17.676C28.784 17.404 28.94 17.116 29.1 16.812C28.908 16.732 28.72 16.692 28.536 16.692C28.088 16.692 27.864 16.92 27.864 17.376C27.864 17.664 27.98 18.016 28.212 18.432ZM35.7422 21.048C35.4302 21.048 35.1622 20.948 34.9382 20.748C34.8182 20.636 34.7302 20.508 34.6742 20.364C34.6262 20.212 34.6022 20.04 34.6022 19.848C34.6022 19.112 34.9062 18.38 35.5142 17.652C36.0262 17.036 36.5582 16.728 37.1102 16.728C37.2942 16.728 37.4502 16.776 37.5782 16.872C37.7142 16.984 37.7822 17.128 37.7822 17.304C37.7822 17.744 37.4902 18.184 36.9062 18.624C36.7222 18.76 36.4782 18.88 36.1742 18.984C35.8382 19.096 35.5942 19.152 35.4422 19.152C35.3302 19.424 35.2742 19.712 35.2742 20.016C35.2742 20.536 35.4662 20.796 35.8502 20.796C36.3542 20.796 36.8262 20.468 37.2662 19.812L37.3142 19.74L37.5182 19.824L37.4822 19.896C37.2822 20.296 37.0302 20.588 36.7262 20.772C36.4222 20.956 36.0942 21.048 35.7422 21.048ZM35.5142 18.948C35.6502 18.948 35.8382 18.904 36.0782 18.816C36.2142 18.76 36.3422 18.7 36.4622 18.636C36.5902 18.572 36.7022 18.5 36.7982 18.42C37.2382 18.052 37.4582 17.664 37.4582 17.256C37.4582 17.08 37.3942 16.992 37.2662 16.992C37.0422 16.992 36.7022 17.268 36.2462 17.82C36.0142 18.1 35.7702 18.476 35.5142 18.948ZM38.15 21C37.918 21 37.802 20.884 37.802 20.652C37.802 20.508 37.85 20.312 37.946 20.064L40.274 14.112C40.29 14.088 40.298 14.064 40.298 14.04C40.298 14.016 40.298 13.996 40.298 13.98C40.298 13.86 40.25 13.736 40.154 13.608L40.802 13.608C41.026 13.608 41.138 13.66 41.138 13.764C41.138 13.812 41.114 13.896 41.066 14.016L38.738 19.944C38.634 20.2 38.582 20.428 38.582 20.628C38.582 20.812 38.638 20.936 38.75 21L38.15 21ZM40.2476 21C40.0156 21 39.8996 20.884 39.8996 20.652C39.8996 20.508 39.9476 20.312 40.0436 20.064L42.3716 14.112C42.3876 14.088 42.3956 14.064 42.3956 14.04C42.3956 14.016 42.3956 13.996 42.3956 13.98C42.3956 13.86 42.3476 13.736 42.2516 13.608L42.8996 13.608C43.1236 13.608 43.2356 13.66 43.2356 13.764C43.2356 13.812 43.2116 13.896 43.1636 14.016L40.8356 19.944C40.7316 20.2 40.6796 20.428 40.6796 20.628C40.6796 20.812 40.7356 20.936 40.8476 21L40.2476 21ZM42.9333 21C42.3493 21 42.0573 20.644 42.0573 19.932C42.0573 19.58 42.1413 19.208 42.3093 18.816C42.5493 18.248 42.8893 17.768 43.3293 17.376C43.7613 16.992 44.1693 16.8 44.5533 16.8C45.1453 16.8 45.4413 17.148 45.4413 17.844C45.4413 18.204 45.3533 18.584 45.1773 18.984C44.9693 19.464 44.6693 19.9 44.2773 20.292C43.7893 20.764 43.3413 21 42.9333 21ZM43.1253 20.736C43.3093 20.736 43.5053 20.66 43.7133 20.508C43.9773 20.316 44.2773 19.916 44.6133 19.308C44.9813 18.652 45.1653 18.124 45.1653 17.724C45.1653 17.364 45.0133 17.184 44.7093 17.184C44.4693 17.184 44.1973 17.336 43.8933 17.64C43.5973 17.936 43.3453 18.312 43.1373 18.768C42.8573 19.368 42.7173 19.848 42.7173 20.208C42.7173 20.56 42.8533 20.736 43.1253 20.736ZM48.0249 21.696C47.3529 21.696 47.0169 21.432 47.0169 20.904C47.0169 20.656 47.1009 20.444 47.2689 20.268C47.4369 20.084 47.6369 19.992 47.8689 19.992C48.0369 19.992 48.1689 20.048 48.2649 20.16C48.3369 20.256 48.3729 20.36 48.3729 20.472C48.3729 20.568 48.3529 20.664 48.3129 20.76C48.2809 20.848 48.2209 20.924 48.1329 20.988C48.0049 21.108 47.8569 21.168 47.6889 21.168C47.5449 21.168 47.4249 21.12 47.3289 21.024C47.4169 21.256 47.6449 21.372 48.0129 21.372C48.1089 21.372 48.1969 21.36 48.2769 21.336C48.9649 21.152 49.5649 20.756 50.0769 20.148C50.5169 19.612 51.0929 18.644 51.8049 17.244L53.5929 13.728C53.6889 13.544 53.7969 13.376 53.9169 13.224C54.0449 13.064 54.1769 12.92 54.3129 12.792C54.0089 12.8 53.6889 12.84 53.3529 12.912C53.0249 12.984 52.6809 13.08 52.3209 13.2C51.5929 13.448 51.0249 13.736 50.6169 14.064C49.8329 14.68 49.4409 15.252 49.4409 15.78C49.4409 16.092 49.6209 16.248 49.9809 16.248C50.4049 16.248 50.8489 16.112 51.3129 15.84C51.7369 15.592 52.1049 15.276 52.4169 14.892C52.4409 14.868 52.4649 14.856 52.4889 14.856C52.5449 14.856 52.5729 14.876 52.5729 14.916C52.5729 15.228 52.1889 15.588 51.4209 15.996C50.7169 16.38 50.1809 16.572 49.8129 16.572C49.0689 16.572 48.6969 16.288 48.6969 15.72C48.6969 15.456 48.8009 15.176 49.0089 14.88C49.2569 14.528 49.5889 14.212 50.0049 13.932C50.4209 13.644 50.9249 13.392 51.5169 13.176C52.5409 12.8 53.5409 12.608 54.5169 12.6C55.0209 12.168 55.5409 11.952 56.0769 11.952C56.3009 11.952 56.5129 11.996 56.7129 12.084C56.7529 12.1 56.7729 12.128 56.7729 12.168C56.7729 12.288 56.7409 12.328 56.6769 12.288C56.5489 12.216 56.3889 12.18 56.1969 12.18C55.8129 12.18 55.4449 12.324 55.0929 12.612C55.7569 12.676 56.2529 12.86 56.5809 13.164C56.8529 13.436 56.9889 13.748 56.9889 14.1C56.9889 14.628 56.7609 15.156 56.3049 15.684C55.8649 16.196 55.3209 16.564 54.6729 16.788C55.7609 16.98 56.3049 17.508 56.3049 18.372C56.3049 19.092 55.9329 19.784 55.1889 20.448C54.3809 21.16 53.4049 21.556 52.2609 21.636C52.2049 21.644 52.1449 21.648 52.0809 21.648C52.0249 21.648 51.9649 21.648 51.9009 21.648C50.8529 21.648 50.3329 21.332 50.3409 20.7C49.5329 21.364 48.7609 21.696 48.0249 21.696ZM53.0169 16.776C53.1769 16.76 53.3329 16.748 53.4849 16.74C53.6449 16.724 53.7969 16.716 53.9409 16.716C54.5409 16.612 55.0649 16.304 55.5129 15.792C55.9769 15.264 56.2089 14.712 56.2089 14.136C56.2089 13.824 56.1169 13.556 55.9329 13.332C55.7009 13.044 55.3489 12.868 54.8769 12.804C54.7249 12.956 54.5889 13.132 54.4689 13.332C54.3569 13.524 54.2529 13.736 54.1569 13.968L53.0169 16.776ZM51.8289 21.444C51.9889 21.444 52.1649 21.424 52.3569 21.384C52.5489 21.344 52.7649 21.288 53.0049 21.216C53.7009 20.992 54.2809 20.604 54.7449 20.052C55.2249 19.484 55.4649 18.94 55.4649 18.42C55.4649 18.012 55.3129 17.688 55.0089 17.448C54.6729 17.184 54.1809 17.052 53.5329 17.052C53.3329 17.052 53.1169 17.064 52.8849 17.088C52.8209 17.248 52.7329 17.444 52.6209 17.676C52.5169 17.908 52.3849 18.168 52.2249 18.456C52.1689 18.552 52.1089 18.652 52.0449 18.756C51.9809 18.86 51.9089 18.968 51.8289 19.08C52.1489 18.92 52.4769 18.784 52.8129 18.672C53.1569 18.552 53.5129 18.452 53.8809 18.372C53.9929 18.348 54.0769 18.336 54.1329 18.336C54.2209 18.336 54.2649 18.352 54.2649 18.384C54.2649 18.464 54.1409 18.532 53.8929 18.588C52.8289 18.868 52.0209 19.296 51.4689 19.872C51.1249 20.224 50.9529 20.532 50.9529 20.796C50.9529 20.932 50.9969 21.056 51.0849 21.168C51.2449 21.352 51.4929 21.444 51.8289 21.444ZM57.7541 20.988C57.2421 20.988 56.9861 20.748 56.9861 20.268C56.9861 20.1 57.0341 19.876 57.1301 19.596C57.2261 19.308 57.3621 18.968 57.5381 18.576L58.1981 17.124C58.2701 16.956 58.4261 16.872 58.6661 16.872L59.3861 16.872C59.1061 17.08 58.8501 17.416 58.6181 17.88C58.5301 18.056 58.4221 18.276 58.2941 18.54C58.1741 18.796 58.0341 19.092 57.8741 19.428C57.7221 19.74 57.6461 20.02 57.6461 20.268C57.6461 20.524 57.7341 20.652 57.9101 20.652C58.1021 20.652 58.3301 20.5 58.5941 20.196C59.0341 19.684 59.6261 18.66 60.3701 17.124C60.4581 16.956 60.6101 16.872 60.8261 16.872L61.4741 16.872C61.2101 17.088 60.9341 17.484 60.6461 18.06C60.2461 18.868 60.0061 19.484 59.9261 19.908C59.9181 19.956 59.9101 20 59.9021 20.04C59.9021 20.08 59.9021 20.12 59.9021 20.16C59.9021 20.472 60.0101 20.628 60.2261 20.628C60.4581 20.628 60.7301 20.4 61.0421 19.944L61.2221 20.028C60.7901 20.668 60.3621 20.988 59.9381 20.988C59.4901 20.988 59.2661 20.704 59.2661 20.136C59.2661 19.92 59.3061 19.692 59.3861 19.452C58.7941 20.476 58.2501 20.988 57.7541 20.988ZM62.4344 21.048C62.0344 21.048 61.7264 20.928 61.5104 20.688C61.3344 20.488 61.2464 20.248 61.2464 19.968C61.2464 19.56 61.3744 19.356 61.6304 19.356C61.7264 19.356 61.8144 19.392 61.8944 19.464C61.9744 19.544 62.0144 19.636 62.0144 19.74C62.0144 19.804 61.9984 19.856 61.9664 19.896C61.8624 20.024 61.8104 20.164 61.8104 20.316C61.8104 20.468 61.8584 20.592 61.9544 20.688C62.0584 20.792 62.1904 20.844 62.3504 20.844C62.5184 20.844 62.6704 20.788 62.8064 20.676C62.9904 20.508 63.0824 20.276 63.0824 19.98C63.0824 19.724 63.0144 19.436 62.8784 19.116C62.8224 19.036 62.7544 18.932 62.6744 18.804C62.6024 18.676 62.5184 18.524 62.4224 18.348C62.3664 18.252 62.3264 18.156 62.3024 18.06C62.2864 17.956 62.2784 17.856 62.2784 17.76C62.2784 17.424 62.4024 17.156 62.6504 16.956C62.9064 16.748 63.2344 16.644 63.6344 16.644C63.7464 16.644 63.8544 16.656 63.9584 16.68C64.0704 16.704 64.1704 16.748 64.2584 16.812C64.4424 16.948 64.5344 17.116 64.5344 17.316C64.5344 17.404 64.5184 17.484 64.4864 17.556C64.4144 17.764 64.2584 17.868 64.0184 17.868C63.7544 17.868 63.6224 17.732 63.6224 17.46C63.6224 17.38 63.6344 17.312 63.6584 17.256C63.6824 17.176 63.7704 17.096 63.9224 17.016C63.8664 16.912 63.7624 16.86 63.6104 16.86C63.4744 16.86 63.3744 16.892 63.3104 16.956C63.1184 17.124 63.0224 17.336 63.0224 17.592C63.0224 17.768 63.0704 17.96 63.1664 18.168C63.1824 18.2 63.3384 18.452 63.6344 18.924C63.8344 19.244 63.9344 19.512 63.9344 19.728C63.9344 20.072 63.7744 20.376 63.4544 20.64C63.1344 20.912 62.7944 21.048 62.4344 21.048ZM67.3307 21.024C67.1547 21.024 67.0107 20.972 66.8987 20.868C66.7387 20.732 66.6587 20.504 66.6587 20.184C66.6587 19.976 66.6947 19.74 66.7667 19.476C66.4947 19.932 66.2107 20.304 65.9147 20.592C65.6107 20.872 65.3387 21.012 65.0987 21.012C64.8907 21.012 64.7267 20.92 64.6067 20.736C64.4787 20.56 64.4147 20.316 64.4147 20.004C64.4147 19.244 64.7547 18.46 65.4347 17.652C65.5467 17.516 65.6747 17.392 65.8187 17.28C65.9627 17.168 66.1187 17.068 66.2867 16.98C66.6307 16.804 66.9627 16.716 67.2827 16.716C67.6747 16.716 67.9867 16.844 68.2187 17.1C68.2747 17.156 68.3027 17.22 68.3027 17.292C68.3027 17.428 68.2307 17.48 68.0867 17.448C68.0067 17.16 67.8187 17.016 67.5227 17.016C67.1867 17.016 66.7907 17.252 66.3347 17.724C66.1747 17.9 66.0227 18.084 65.8787 18.276C65.7347 18.46 65.5987 18.656 65.4707 18.864C65.1267 19.44 64.9547 19.908 64.9547 20.268C64.9547 20.54 65.0587 20.676 65.2667 20.676C65.4987 20.676 65.7667 20.5 66.0707 20.148C66.2387 19.956 66.4107 19.72 66.5867 19.44C66.7627 19.16 66.9467 18.836 67.1387 18.468C67.2187 18.316 67.2907 18.192 67.3547 18.096C67.4187 18 67.4707 17.928 67.5107 17.88C67.6387 17.752 67.7907 17.692 67.9667 17.7L68.2067 17.736C68.3107 17.76 68.3987 17.764 68.4707 17.748C68.3987 17.82 68.3107 17.936 68.2067 18.096C68.1107 18.248 67.9987 18.448 67.8707 18.696C67.7347 18.96 67.6227 19.2 67.5347 19.416C67.4467 19.632 67.3867 19.824 67.3547 19.992C67.3387 20.072 67.3267 20.148 67.3187 20.22C67.3107 20.284 67.3067 20.344 67.3067 20.4C67.3067 20.608 67.3627 20.712 67.4747 20.712C67.6347 20.712 67.8547 20.536 68.1347 20.184L68.1827 20.124L68.3507 20.232L68.3027 20.304C67.9747 20.784 67.6507 21.024 67.3307 21.024ZM68.4755 21.084C68.6355 20.692 68.8355 20.208 69.0755 19.632C69.3155 19.056 69.6075 18.392 69.9515 17.64C70.0235 17.48 70.0915 17.348 70.1555 17.244C70.2195 17.14 70.2795 17.06 70.3355 17.004C70.4475 16.892 70.5915 16.836 70.7675 16.836C70.7835 16.836 70.8115 16.836 70.8515 16.836C70.8915 16.836 70.9475 16.844 71.0195 16.86C71.1315 16.868 71.2155 16.868 71.2715 16.86C70.9755 17.036 70.5315 17.812 69.9395 19.188C70.0355 19.052 70.1635 18.904 70.3235 18.744C70.4915 18.576 70.6875 18.392 70.9115 18.192C71.0555 18.056 71.2155 17.928 71.3915 17.808C71.5675 17.68 71.7595 17.56 71.9675 17.448C72.4395 17.184 72.7875 17.052 73.0115 17.052C73.0675 17.052 73.1075 17.056 73.1315 17.064C73.0035 17.288 72.8835 17.504 72.7715 17.712C72.6675 17.92 72.5675 18.116 72.4715 18.3C72.0075 19.196 71.7475 19.816 71.6915 20.16C71.6835 20.216 71.6755 20.268 71.6675 20.316C71.6675 20.364 71.6675 20.408 71.6675 20.448C71.6675 20.656 71.7435 20.76 71.8955 20.76C72.1435 20.76 72.4395 20.508 72.7835 20.004L72.9515 20.124C72.5435 20.74 72.1315 21.048 71.7155 21.048C71.2115 21.048 70.9595 20.788 70.9595 20.268C70.9595 19.844 71.2195 19.216 71.7395 18.384C71.8195 18.256 71.8595 18.148 71.8595 18.06C71.8595 17.964 71.8155 17.916 71.7275 17.916C71.6395 17.916 71.5235 17.964 71.3795 18.06C71.2435 18.148 71.0795 18.28 70.8875 18.456C70.5835 18.736 70.2995 19.072 70.0355 19.464C69.7715 19.848 69.5315 20.288 69.3155 20.784C69.2675 20.904 69.1435 20.976 68.9435 21C68.6875 21.024 68.5315 21.052 68.4755 21.084Z" fill="black"/>
</g>
</svg>
